# This file uses centimeters as units for non-parametric coordinates.

mtllib tower_stalk.mtl
g default
v -2.667019 -0.023600 1.517855
v 1.170611 -0.023600 2.645948
v -2.667019 37.923954 1.517855
v 1.170611 37.923954 2.645948
v -1.538926 37.923954 -2.319775
v 2.298704 37.923954 -1.191682
v -1.538926 -0.023600 -2.319775
v 2.298704 -0.023600 -1.191682
v -2.043053 39.449867 5.061918
v -2.043053 37.212414 5.061918
v -5.481631 37.212414 -1.239806
v -0.611480 37.212414 0.191767
v 4.258669 37.212414 1.623340
v 0.820093 37.212414 -4.678383
v 0.820093 39.449867 -4.678383
v -5.481631 39.449867 -1.239806
v -0.611480 39.449867 0.191767
v 4.258669 39.449867 1.623340
v 3.113382 39.449867 5.519557
v 1.853164 39.449867 6.207204
v 3.113382 37.212414 5.519557
v 1.853164 37.212414 6.207204
v -6.626917 39.449867 2.656412
v -5.939270 39.449867 3.916631
v -6.626917 37.212414 2.656412
v -5.939270 37.212414 3.916631
v 4.716310 37.212414 -3.533097
v 5.403956 37.212414 -2.272878
v 5.403956 39.449867 -2.272878
v 4.716310 39.449867 -3.533097
v -4.336345 37.212414 -5.136024
v -3.076125 37.212414 -5.823671
v -4.336345 39.449867 -5.136024
v -3.076125 39.449867 -5.823671
v -2.448011 40.469715 6.439567
v -2.448011 38.232258 6.439567
v -6.859280 38.232258 -1.644763
v -0.611480 38.232258 0.191767
v 5.636318 38.232258 2.028298
v 1.225050 38.232258 -6.056031
v 1.225050 40.469715 -6.056031
v -6.859280 40.469715 -1.644763
v -0.611480 40.469715 0.191767
v 5.636318 40.469715 2.028298
v 4.167057 40.469715 7.026662
v 2.550354 40.469715 7.908827
v 4.167057 38.232258 7.026662
v 2.550354 38.232258 7.908827
v -8.328540 40.469715 3.353602
v -7.446374 40.469715 4.970306
v -8.328540 38.232258 3.353602
v -7.446374 38.232258 4.970306
v 6.223413 38.232258 -4.586771
v 7.105579 38.232258 -2.970068
v 7.105579 40.469715 -2.970068
v 6.223413 40.469715 -4.586771
v -5.390020 38.232258 -6.643128
v -3.773315 38.232258 -7.525294
v -5.390020 40.469715 -6.643128
v -3.773315 40.469715 -7.525294
vt 0.375000 0.000000
vt 0.625000 0.000000
vt 0.375000 0.250000
vt 0.625000 0.250000
vt 0.375000 0.500000
vt 0.625000 0.500000
vt 0.375000 0.750000
vt 0.625000 0.750000
vt 0.375000 1.000000
vt 0.625000 1.000000
vt 0.875000 0.000000
vt 0.875000 0.250000
vt 0.125000 0.000000
vt 0.125000 0.250000
vt 0.500000 0.000000
vt 0.500000 0.250000
vt 0.399998 0.250000
vt 0.399998 0.000000
vt 0.600002 0.000000
vt 0.600003 0.250000
vt 0.625000 0.274998
vt 0.625000 0.375000
vt 0.500000 0.375000
vt 0.375000 0.375000
vt 0.500000 0.500000
vt 0.399998 0.500000
vt 0.375000 0.475002
vt 0.625000 0.475002
vt 0.600002 0.500000
vt 0.500000 0.750000
vt 0.399997 0.750000
vt 0.600003 0.750000
vt 0.625000 0.774998
vt 0.625000 0.875000
vt 0.500000 0.875000
vt 0.375000 0.875000
vt 0.500000 1.000000
vt 0.399998 1.000000
vt 0.375000 0.975002
vt 0.625000 0.975003
vt 0.600003 1.000000
vt 0.750000 0.000000
vt 0.850002 -0.000000
vt 0.850003 0.250000
vt 0.750000 0.250000
vt 0.649998 0.250000
vt 0.649998 0.000000
vt 0.250000 0.000000
vt 0.250000 0.250000
vt 0.149997 0.250000
vt 0.149998 0.000000
vt 0.350003 0.000000
vt 0.350002 0.250000
vt 0.375000 0.274998
vt 0.375000 0.774997
vt 0.500000 0.000000
vt 0.500000 0.250000
vt 0.399998 0.250000
vt 0.399998 0.000000
vt 0.600002 0.000000
vt 0.600003 0.250000
vt 0.625000 0.274998
vt 0.625000 0.375000
vt 0.500000 0.375000
vt 0.375000 0.375000
vt 0.500000 0.500000
vt 0.399998 0.500000
vt 0.375000 0.475002
vt 0.625000 0.475002
vt 0.600002 0.500000
vt 0.500000 0.750000
vt 0.399997 0.750000
vt 0.600003 0.750000
vt 0.625000 0.774998
vt 0.625000 0.875000
vt 0.500000 0.875000
vt 0.375000 0.875000
vt 0.500000 1.000000
vt 0.399998 1.000000
vt 0.375000 0.975002
vt 0.625000 0.975003
vt 0.600003 1.000000
vt 0.750000 0.000000
vt 0.850002 -0.000000
vt 0.850003 0.250000
vt 0.750000 0.250000
vt 0.649998 0.250000
vt 0.649998 0.000000
vt 0.250000 0.000000
vt 0.250000 0.250000
vt 0.149997 0.250000
vt 0.149998 0.000000
vt 0.350003 0.000000
vt 0.350002 0.250000
vt 0.375000 0.274998
vt 0.375000 0.774997
vn -0.282023 0.000000 0.959408
vn -0.282023 0.000000 0.959408
vn -0.282023 0.000000 0.959408
vn -0.282023 0.000000 0.959408
vn 0.000000 1.000000 0.000001
vn 0.000000 1.000000 0.000001
vn 0.000000 1.000000 0.000001
vn 0.000000 1.000000 0.000001
vn 0.282023 0.000000 -0.959408
vn 0.282023 0.000000 -0.959408
vn 0.282023 0.000000 -0.959408
vn 0.282023 0.000000 -0.959408
vn 0.000000 -1.000000 -0.000000
vn 0.000000 -1.000000 -0.000000
vn 0.000000 -1.000000 -0.000000
vn 0.000000 -1.000000 -0.000000
vn 0.959408 0.000000 0.282023
vn 0.959408 0.000000 0.282023
vn 0.959408 0.000000 0.282023
vn 0.959408 0.000000 0.282023
vn -0.959408 0.000000 -0.282023
vn -0.959408 0.000000 -0.282023
vn -0.959408 0.000000 -0.282023
vn -0.959408 0.000000 -0.282023
vn -0.282017 0.000000 0.959409
vn -0.282017 0.000000 0.959409
vn -0.282017 0.000000 0.959409
vn -0.282017 0.000000 0.959409
vn -0.282017 0.000000 0.959409
vn -0.282017 0.000000 0.959409
vn 0.000000 -1.000000 0.000000
vn 0.000000 -1.000000 0.000000
vn 0.000000 -1.000000 0.000001
vn 0.000000 -1.000000 0.000001
vn 0.000000 -1.000000 0.000001
vn 0.000000 -1.000000 0.000000
vn 0.000000 -1.000000 0.000000
vn 0.000000 -1.000000 0.000000
vn 0.000000 -1.000000 0.000001
vn 0.000000 -1.000000 0.000001
vn 0.000000 -1.000000 0.000001
vn 0.282017 0.000000 -0.959410
vn 0.282017 0.000000 -0.959409
vn 0.282017 0.000000 -0.959409
vn 0.282017 0.000000 -0.959410
vn 0.282017 0.000000 -0.959410
vn 0.282017 0.000000 -0.959410
vn 0.000000 1.000000 0.000000
vn 0.000000 1.000000 -0.000000
vn 0.000000 1.000000 -0.000001
vn 0.000000 1.000000 0.000000
vn 0.000000 1.000000 0.000000
vn 0.000000 1.000000 0.000000
vn 0.000000 1.000000 0.000000
vn 0.000000 1.000000 0.000000
vn 0.000000 1.000000 -0.000001
vn 0.000000 1.000000 -0.000001
vn 0.000000 1.000000 -0.000001
vn 0.959409 0.000000 0.282017
vn 0.959409 0.000000 0.282017
vn 0.959410 0.000000 0.282017
vn 0.959410 0.000000 0.282017
vn 0.959409 0.000000 0.282017
vn 0.959409 0.000000 0.282017
vn -0.959410 0.000000 -0.282017
vn -0.959410 0.000000 -0.282017
vn -0.959410 0.000000 -0.282017
vn -0.959410 0.000000 -0.282017
vn -0.959410 0.000000 -0.282017
vn -0.959410 0.000000 -0.282017
vn 0.000000 -1.000000 0.000000
vn 0.000000 -1.000000 0.000000
vn 0.000000 1.000000 0.000001
vn 0.000000 1.000000 0.000001
vn 0.478989 0.000000 0.877821
vn 0.478989 0.000000 0.877821
vn 0.478989 0.000000 0.877821
vn 0.478989 0.000000 0.877821
vn -0.877821 0.000000 0.478989
vn -0.877821 0.000000 0.478989
vn -0.877821 0.000000 0.478989
vn -0.877821 0.000000 0.478989
vn 0.877821 0.000000 -0.478989
vn 0.877821 0.000000 -0.478989
vn 0.877821 0.000000 -0.478989
vn 0.877821 0.000000 -0.478989
vn -0.478989 0.000000 -0.877821
vn -0.478989 0.000000 -0.877821
vn -0.478989 0.000000 -0.877821
vn -0.478989 0.000000 -0.877821
vn -0.282017 0.000000 0.959410
vn -0.282017 0.000000 0.959410
vn -0.282017 0.000000 0.959410
vn -0.282017 0.000000 0.959410
vn -0.282017 0.000000 0.959410
vn -0.282017 0.000000 0.959410
vn 0.000000 -1.000000 0.000000
vn 0.000000 -1.000000 0.000000
vn 0.000000 -1.000000 0.000000
vn 0.000000 -1.000000 0.000001
vn 0.000000 -1.000000 0.000001
vn 0.000000 -1.000000 -0.000000
vn 0.000000 -1.000000 -0.000001
vn 0.000000 -1.000000 -0.000001
vn 0.000000 -1.000000 -0.000000
vn 0.000000 -1.000000 0.000000
vn 0.000000 -1.000000 0.000000
vn 0.282017 0.000000 -0.959410
vn 0.282017 0.000000 -0.959409
vn 0.282017 0.000000 -0.959409
vn 0.282017 0.000000 -0.959410
vn 0.282017 0.000000 -0.959410
vn 0.282017 0.000000 -0.959410
vn 0.000000 1.000000 0.000000
vn 0.000000 1.000000 -0.000000
vn 0.000000 1.000000 -0.000000
vn 0.000000 1.000000 0.000000
vn 0.000000 1.000000 0.000000
vn 0.000000 1.000000 0.000000
vn 0.000000 1.000000 0.000000
vn 0.000000 1.000000 0.000000
vn 0.000000 1.000000 -0.000000
vn 0.000000 1.000000 -0.000001
vn 0.000000 1.000000 -0.000001
vn 0.959410 0.000000 0.282017
vn 0.959410 0.000000 0.282017
vn 0.959410 0.000000 0.282017
vn 0.959410 0.000000 0.282017
vn 0.959410 0.000000 0.282017
vn 0.959410 0.000000 0.282017
vn -0.959410 0.000000 -0.282017
vn -0.959410 0.000000 -0.282017
vn -0.959410 0.000000 -0.282017
vn -0.959410 0.000000 -0.282017
vn -0.959410 0.000000 -0.282017
vn -0.959410 0.000000 -0.282017
vn 0.000000 -1.000000 0.000000
vn 0.000000 -1.000000 0.000000
vn 0.000000 1.000000 0.000000
vn 0.000000 1.000000 0.000000
vn 0.478989 0.000000 0.877821
vn 0.478989 0.000000 0.877821
vn 0.478989 0.000000 0.877821
vn 0.478989 0.000000 0.877821
vn -0.877821 0.000000 0.478989
vn -0.877821 0.000000 0.478989
vn -0.877821 0.000000 0.478989
vn -0.877821 0.000000 0.478989
vn 0.877821 0.000000 -0.478989
vn 0.877821 0.000000 -0.478989
vn 0.877821 0.000000 -0.478989
vn 0.877821 0.000000 -0.478989
vn -0.478988 0.000000 -0.877821
vn -0.478988 0.000000 -0.877821
vn -0.478988 0.000000 -0.877821
vn -0.478988 0.000000 -0.877821
s off
g stalk
usemtl initialShadingGroup
f 3/3/1 1/1/2 2/2/3 4/4/4
f 5/5/5 3/3/6 4/4/7 6/6/8
f 7/7/9 5/5/10 6/6/11 8/8/12
f 2/10/13 1/9/14 7/7/15 8/8/16
f 6/12/17 4/4/18 2/2/19 8/11/20
f 3/3/21 5/14/22 7/13/23 1/1/24
s 1
f 9/15/25 24/18/26 26/17/27 10/16/28
f 20/19/29 9/15/25 10/16/28 22/20/30
s 2
f 10/16/31 12/23/32 13/22/33 21/21/34 22/20/35
f 11/24/36 31/27/37 32/26/38 14/25/39 12/23/32
f 12/23/32 14/25/39 27/29/40 28/28/41 13/22/33
s 3
f 14/25/42 32/26/43 34/31/44 15/30/45
f 27/29/46 14/25/42 15/30/45 30/32/47
s 4
f 15/30/48 17/35/49 18/34/50 29/33/51 30/32/52
f 16/36/53 23/39/54 24/38/55 9/37/56 17/35/49
f 17/35/49 9/37/56 20/41/57 19/40/58 18/34/50
s 5
f 18/42/59 13/45/60 28/44/61 29/43/62
f 21/46/63 13/45/60 18/42/59 19/47/64
s 6
f 16/48/65 33/51/66 31/50/67 11/49/68
f 23/52/69 16/48/65 11/49/68 25/53/70
s 2
f 25/54/71 11/24/36 12/23/32 10/16/31 26/17/72
s 4
f 33/55/73 16/36/53 17/35/49 15/30/48 34/31/74
s off
f 20/19/75 22/20/76 21/46/77 19/47/78
f 23/52/79 25/53/80 26/17/81 24/18/82
f 27/29/83 30/32/84 29/33/85 28/28/86
f 31/27/87 33/55/88 34/31/89 32/26/90
s 7
f 35/56/91 50/59/92 52/58/93 36/57/94
f 46/60/95 35/56/91 36/57/94 48/61/96
s 8
f 36/57/97 38/64/98 39/63/99 47/62/100 48/61/101
f 37/65/102 57/68/103 58/67/104 40/66/105 38/64/98
f 38/64/98 40/66/105 53/70/106 54/69/107 39/63/99
s 9
f 40/66/108 58/67/109 60/72/110 41/71/111
f 53/70/112 40/66/108 41/71/111 56/73/113
s 10
f 41/71/114 43/76/115 44/75/116 55/74/117 56/73/118
f 42/77/119 49/80/120 50/79/121 35/78/122 43/76/115
f 43/76/115 35/78/122 46/82/123 45/81/124 44/75/116
s 11
f 44/83/125 39/86/126 54/85/127 55/84/128
f 47/87/129 39/86/126 44/83/125 45/88/130
s 12
f 42/89/131 59/92/132 57/91/133 37/90/134
f 49/93/135 42/89/131 37/90/134 51/94/136
s 8
f 51/95/137 37/65/102 38/64/98 36/57/97 52/58/138
s 10
f 59/96/139 42/77/119 43/76/115 41/71/114 60/72/140
s off
f 46/60/141 48/61/142 47/87/143 45/88/144
f 49/93/145 51/94/146 52/58/147 50/59/148
f 53/70/149 56/73/150 55/74/151 54/69/152
f 57/68/153 59/96/154 60/72/155 58/67/156
