# This file uses centimeters as units for non-parametric coordinates.

mtllib thruster.mtl
g default
v 5.352847 1.205067 -0.000000
v 5.352847 0.810327 -0.952988
v 5.352847 -0.142661 -1.347728
v 5.352847 -1.095649 -0.952988
v 5.352847 -1.490389 -0.000000
v 5.352847 -1.095649 0.952988
v 5.352847 -0.142661 1.347728
v 5.352847 0.810327 0.952988
v 4.259060 1.320682 0.000000
v 4.259060 0.892078 -1.034739
v 4.259060 -0.142661 -1.463342
v 4.259060 -1.177400 -1.034739
v 4.259060 -1.606003 0.000000
v 4.259060 -1.177400 1.034739
v 4.259060 -0.142661 1.463342
v 4.259060 0.892078 1.034739
v 4.259060 1.483275 0.000000
v 4.259060 1.007049 -1.149710
v 4.259060 -0.142661 -1.625936
v 4.259060 -1.292371 -1.149710
v 4.259060 -1.768597 0.000000
v 4.259060 -1.292371 1.149710
v 4.259060 -0.142661 1.625936
v 4.259060 1.007049 1.149710
v 5.352847 1.354815 -0.000000
v 5.352847 0.916215 -1.058875
v 5.352847 -0.142661 -1.497476
v 5.352847 -1.201536 -1.058875
v 5.352847 -1.640137 -0.000000
v 5.352847 -1.201536 1.058875
v 5.352847 -0.142661 1.497476
v 5.352847 0.916214 1.058875
v 4.443343 0.991745 1.134406
v 4.443343 1.461632 0.000000
v 4.443343 0.991746 -1.134406
v 4.443343 -0.142661 -1.604293
v 4.443343 -1.277067 -1.134406
v 4.443343 -1.746954 0.000000
v 4.443343 -1.277067 1.134406
v 4.443343 -0.142661 1.604293
v 4.281746 1.676430 0.000000
v 4.281746 1.143631 -1.286292
v 4.466028 1.654787 0.000000
v 4.466028 1.128327 -1.270988
v 4.281746 -0.142661 -1.819092
v 4.466028 -0.142661 -1.797448
v 4.281746 -1.428953 -1.286292
v 4.466028 -1.413649 -1.270988
v 4.281746 -1.961752 0.000000
v 4.466028 -1.940109 0.000000
v 4.281746 -1.428953 1.286292
v 4.466028 -1.413649 1.270988
v 4.281746 -0.142661 1.819092
v 4.466028 -0.142661 1.797448
v 4.281746 1.143631 1.286292
v 4.466028 1.128327 1.270988
v -0.766175 2.073466 0.000000
v -0.766175 1.424377 -1.567038
v -0.743489 2.266621 0.000000
v -0.743490 1.560959 -1.703620
v -0.766175 -0.142661 -2.216126
v -0.743490 -0.142661 -2.409282
v -0.766175 -1.709699 -1.567038
v -0.743490 -1.846281 -1.703620
v -0.766175 -2.358787 0.000000
v -0.743489 -2.551943 0.000000
v -0.766175 -1.709699 1.567038
v -0.743490 -1.846281 1.703620
v -0.766175 -0.142661 2.216127
v -0.743490 -0.142661 2.409283
v -0.766175 1.424378 1.567039
v -0.743489 1.560959 1.703620
v -2.774945 1.947392 0.000001
v -2.774945 1.335227 -1.477889
v -2.752259 2.112032 0.000001
v -2.752260 1.451645 -1.594307
v -2.774945 -0.142663 -2.090053
v -2.752260 -0.142663 -2.254693
v -2.774945 -1.620554 -1.477892
v -2.752260 -1.736972 -1.594310
v -2.774944 -2.232717 0.000000
v -2.752259 -2.397357 0.000000
v -2.774945 -1.620552 1.477890
v -2.752259 -1.736970 1.594308
v -2.774945 -0.142661 2.090052
v -2.752260 -0.142661 2.254692
v -2.774945 1.335231 1.477891
v -2.752259 1.451650 1.594309
vt 0.000000 1.000000
vt 0.125000 1.000000
vt 0.250000 1.000000
vt 0.375000 1.000000
vt 0.500000 1.000000
vt 0.625000 1.000000
vt 0.750000 1.000000
vt 0.875000 1.000000
vt 1.000000 1.000000
vt 0.000000 0.750000
vt 0.125000 0.750000
vt 0.250000 0.750000
vt 0.375000 0.750000
vt 0.500000 0.750000
vt 0.625000 0.750000
vt 0.750000 0.750000
vt 0.875000 0.750000
vt 1.000000 0.750000
vt 0.000000 0.500000
vt 0.125000 0.500000
vt 0.250000 0.500000
vt 0.375000 0.500000
vt 0.500000 0.500000
vt 0.625000 0.500000
vt 0.750000 0.500000
vt 0.875000 0.500000
vt 1.000000 0.500000
vt 0.000000 0.250000
vt 0.125000 0.250000
vt 0.250000 0.250000
vt 0.375000 0.250000
vt 0.500000 0.250000
vt 0.625000 0.250000
vt 0.750000 0.250000
vt 0.875000 0.250000
vt 1.000000 0.250000
vt 0.000000 0.000000
vt 0.125000 0.000000
vt 0.250000 0.000000
vt 0.375000 0.000000
vt 0.500000 0.000000
vt 0.625000 0.000000
vt 0.750000 0.000000
vt 0.875000 0.000000
vt 1.000000 0.000000
vt 0.875000 0.457880
vt 0.000000 0.457880
vt 1.000000 0.457880
vt 0.125000 0.457880
vt 0.250000 0.457880
vt 0.375000 0.457880
vt 0.500000 0.457880
vt 0.625000 0.457880
vt 0.750000 0.457880
vt 0.125000 0.500000
vt 0.000000 0.500000
vt 0.000000 0.457880
vt 0.125000 0.457880
vt 0.250000 0.500000
vt 0.250000 0.457880
vt 0.375000 0.500000
vt 0.375000 0.457880
vt 0.500000 0.500000
vt 0.500000 0.457880
vt 0.625000 0.500000
vt 0.625000 0.457880
vt 0.750000 0.500000
vt 0.750000 0.457880
vt 0.875000 0.500000
vt 0.875000 0.457880
vt 1.000000 0.500000
vt 1.000000 0.457880
vt 0.125000 0.500000
vt 0.000000 0.500000
vt 0.000000 0.500000
vt 0.125000 0.500000
vt 0.250000 0.500000
vt 0.250000 0.500000
vt 0.375000 0.500000
vt 0.375000 0.500000
vt 0.500000 0.500000
vt 0.500000 0.500000
vt 0.625000 0.500000
vt 0.625000 0.500000
vt 0.750000 0.500000
vt 0.750000 0.500000
vt 0.875000 0.500000
vt 0.875000 0.500000
vt 1.000000 0.500000
vt 1.000000 0.500000
vt 0.125000 0.500000
vt 0.000000 0.500000
vt 0.000000 0.500000
vt 0.125000 0.500000
vt 0.250000 0.500000
vt 0.250000 0.500000
vt 0.375000 0.500000
vt 0.375000 0.500000
vt 0.500000 0.500000
vt 0.500000 0.500000
vt 0.625000 0.500000
vt 0.625000 0.500000
vt 0.750000 0.500000
vt 0.750000 0.500000
vt 0.875000 0.500000
vt 0.875000 0.500000
vt 1.000000 0.500000
vt 1.000000 0.500000
vn -0.097192 -0.919505 0.380872
vn -0.097192 -0.919505 0.380872
vn -0.097192 -0.919505 0.380872
vn -0.097192 -0.919505 0.380872
vn -0.097192 -0.380872 0.919506
vn -0.097192 -0.380872 0.919506
vn -0.097192 -0.380872 0.919506
vn -0.097192 -0.380872 0.919506
vn -0.097192 0.380872 0.919506
vn -0.097192 0.380872 0.919506
vn -0.097192 0.380872 0.919506
vn -0.097192 0.380872 0.919506
vn -0.097192 0.919506 0.380872
vn -0.097192 0.919506 0.380872
vn -0.097192 0.919506 0.380872
vn -0.097192 0.919506 0.380872
vn -0.097192 0.919506 -0.380872
vn -0.097192 0.919506 -0.380872
vn -0.097192 0.919506 -0.380872
vn -0.097192 0.919506 -0.380872
vn -0.097192 0.380872 -0.919506
vn -0.097192 0.380872 -0.919506
vn -0.097192 0.380872 -0.919506
vn -0.097192 0.380872 -0.919506
vn -0.097192 -0.380872 -0.919506
vn -0.097192 -0.380872 -0.919506
vn -0.097192 -0.380872 -0.919506
vn -0.097192 -0.380872 -0.919506
vn -0.097192 -0.919505 -0.380872
vn -0.097192 -0.919505 -0.380872
vn -0.097192 -0.919505 -0.380872
vn -0.097192 -0.919505 -0.380872
vn -1.000000 0.000000 0.000000
vn -1.000000 0.000000 0.000000
vn -1.000000 0.000000 0.000000
vn -1.000000 0.000000 0.000000
vn -1.000000 0.000000 -0.000000
vn -1.000000 0.000000 -0.000000
vn -1.000000 0.000000 0.000000
vn -1.000000 0.000000 0.000000
vn -1.000000 0.000000 0.000000
vn -1.000000 0.000000 0.000000
vn -1.000000 0.000000 -0.000000
vn -1.000000 0.000000 -0.000000
vn -1.000000 0.000000 0.000000
vn -1.000000 0.000000 0.000000
vn -1.000000 0.000000 0.000000
vn -1.000000 0.000000 0.000000
vn 0.107872 0.918489 -0.380450
vn 0.107872 0.918489 -0.380450
vn 0.107871 0.918489 -0.380450
vn 0.107871 0.918489 -0.380450
vn 0.107872 0.380450 -0.918489
vn 0.107872 0.380450 -0.918489
vn 0.107872 0.380450 -0.918489
vn 0.107872 0.380450 -0.918489
vn 0.107872 -0.380450 -0.918489
vn 0.107872 -0.380450 -0.918489
vn 0.107872 -0.380450 -0.918488
vn 0.107872 -0.380450 -0.918488
vn 0.107872 -0.918489 -0.380450
vn 0.107872 -0.918489 -0.380450
vn 0.107872 -0.918489 -0.380450
vn 0.107872 -0.918489 -0.380450
vn 0.107872 -0.918489 0.380450
vn 0.107872 -0.918489 0.380450
vn 0.107872 -0.918489 0.380450
vn 0.107872 -0.918489 0.380450
vn 0.107872 -0.380450 0.918489
vn 0.107872 -0.380450 0.918489
vn 0.107872 -0.380450 0.918489
vn 0.107872 -0.380450 0.918489
vn 0.107872 0.380450 0.918489
vn 0.107872 0.380450 0.918489
vn 0.107873 0.380450 0.918489
vn 0.107873 0.380450 0.918489
vn 0.107872 0.918489 0.380450
vn 0.107872 0.918489 0.380450
vn 0.107872 0.918489 0.380450
vn 0.107872 0.918488 0.380450
vn 1.000000 -0.000000 0.000000
vn 1.000000 -0.000000 0.000000
vn 1.000000 -0.000000 0.000000
vn 1.000000 -0.000000 0.000000
vn 1.000000 -0.000000 0.000000
vn 1.000000 -0.000000 0.000000
vn 1.000000 -0.000000 0.000000
vn 1.000000 -0.000000 0.000000
vn 1.000000 -0.000000 0.000000
vn 1.000000 -0.000000 0.000000
vn 1.000000 -0.000000 0.000000
vn 1.000000 -0.000000 0.000000
vn 1.000000 -0.000000 0.000000
vn 1.000000 -0.000000 0.000000
vn 1.000000 -0.000000 0.000000
vn 1.000000 -0.000000 0.000000
vn 0.107872 0.918488 0.380451
vn 0.107872 0.918488 0.380451
vn 0.107872 0.918489 0.380451
vn 0.107872 0.918489 0.380451
vn 0.107872 0.918489 -0.380450
vn 0.107872 0.918489 -0.380450
vn 0.107872 0.918489 -0.380450
vn 0.107872 0.918489 -0.380450
vn 0.107872 0.380450 -0.918489
vn 0.107872 0.380450 -0.918489
vn 0.107872 0.380450 -0.918489
vn 0.107872 0.380450 -0.918489
vn 0.107872 -0.380450 -0.918488
vn 0.107872 -0.380450 -0.918488
vn 0.107872 -0.380450 -0.918489
vn 0.107872 -0.380450 -0.918489
vn 0.107872 -0.918488 -0.380450
vn 0.107872 -0.918488 -0.380450
vn 0.107872 -0.918489 -0.380450
vn 0.107872 -0.918489 -0.380450
vn 0.107872 -0.918488 0.380450
vn 0.107872 -0.918488 0.380450
vn 0.107872 -0.918489 0.380450
vn 0.107872 -0.918489 0.380450
vn 0.107872 -0.380450 0.918489
vn 0.107872 -0.380450 0.918489
vn 0.107872 -0.380450 0.918489
vn 0.107872 -0.380450 0.918489
vn 0.107872 0.380450 0.918489
vn 0.107872 0.380450 0.918489
vn 0.107872 0.380450 0.918489
vn 0.107872 0.380450 0.918489
vn -0.990640 0.096518 -0.096519
vn -0.990640 0.136497 0.000001
vn -0.990640 0.136497 0.000001
vn -0.990640 0.096518 -0.096519
vn 0.993174 -0.116644 -0.000000
vn 0.993174 -0.082480 0.082479
vn 0.993174 -0.082480 0.082479
vn 0.993174 -0.116644 -0.000000
vn -0.990640 -0.000000 -0.136500
vn -0.990640 -0.000000 -0.136501
vn 0.993174 0.000000 0.116643
vn 0.993174 0.000000 0.116643
vn -0.990640 -0.096519 -0.096520
vn -0.990640 -0.096519 -0.096519
vn 0.993174 0.082480 0.082479
vn 0.993174 0.082480 0.082479
vn -0.990640 -0.136499 0.000001
vn -0.990640 -0.136499 0.000001
vn 0.993174 0.116644 -0.000000
vn 0.993174 0.116644 -0.000000
vn -0.990641 -0.096519 0.096517
vn -0.990641 -0.096519 0.096517
vn 0.993174 0.082480 -0.082480
vn 0.993174 0.082480 -0.082480
vn -0.990641 -0.000000 0.136495
vn -0.990641 -0.000000 0.136495
vn 0.993174 -0.000000 -0.116644
vn 0.993174 -0.000000 -0.116644
vn -0.990640 0.096518 0.096519
vn -0.990640 0.096518 0.096519
vn 0.993174 -0.082480 -0.082480
vn 0.993174 -0.082480 -0.082480
vn -0.107872 -0.918488 0.380451
vn -0.107872 -0.918488 0.380451
vn -0.056423 -0.922408 0.382074
vn -0.056423 -0.922408 0.382074
vn 0.053091 0.922576 -0.382144
vn 0.053091 0.922576 -0.382144
vn -0.107872 -0.380450 0.918489
vn -0.107872 -0.380450 0.918489
vn -0.056423 -0.382074 0.922408
vn -0.056423 -0.382074 0.922408
vn 0.053091 0.382144 -0.922577
vn 0.053091 0.382144 -0.922577
vn -0.107872 0.380450 0.918489
vn -0.107872 0.380450 0.918489
vn -0.056423 0.382074 0.922408
vn -0.056423 0.382074 0.922408
vn 0.053091 -0.382144 -0.922577
vn 0.053091 -0.382144 -0.922577
vn -0.107872 0.918489 0.380450
vn -0.107872 0.918489 0.380450
vn -0.056423 0.922408 0.382074
vn -0.056423 0.922408 0.382074
vn 0.053091 -0.922577 -0.382144
vn 0.053091 -0.922576 -0.382144
vn -0.107872 0.918489 -0.380450
vn -0.107872 0.918489 -0.380450
vn -0.056423 0.922408 -0.382074
vn -0.056423 0.922408 -0.382074
vn 0.053091 -0.922576 0.382144
vn 0.053091 -0.922576 0.382144
vn -0.107872 0.380450 -0.918489
vn -0.107872 0.380450 -0.918489
vn -0.056423 0.382074 -0.922408
vn -0.056423 0.382074 -0.922408
vn 0.053091 -0.382144 0.922577
vn 0.053091 -0.382144 0.922577
vn -0.107872 -0.380450 -0.918489
vn -0.107872 -0.380450 -0.918489
vn -0.056423 -0.382073 -0.922408
vn -0.056423 -0.382073 -0.922408
vn 0.053091 0.382143 0.922577
vn 0.053091 0.382143 0.922577
vn -0.107872 -0.918489 -0.380450
vn -0.107872 -0.918489 -0.380450
vn -0.056423 -0.922408 -0.382074
vn -0.056423 -0.922408 -0.382074
vn 0.053091 0.922577 0.382143
vn 0.053091 0.922577 0.382143
vn 0.057888 -0.922330 0.382043
vn 0.057888 -0.922330 0.382043
vn -0.070921 0.921553 -0.381721
vn -0.070921 0.921553 -0.381721
vn 0.057887 -0.382042 0.922330
vn 0.057887 -0.382042 0.922330
vn -0.070921 0.381720 -0.921553
vn -0.070921 0.381720 -0.921553
vn 0.057886 0.382041 0.922331
vn 0.057886 0.382041 0.922331
vn -0.070919 -0.381719 -0.921553
vn -0.070919 -0.381719 -0.921553
vn 0.057886 0.922330 0.382042
vn 0.057886 0.922330 0.382042
vn -0.070919 -0.921553 -0.381720
vn -0.070919 -0.921553 -0.381720
vn 0.057886 0.922330 -0.382042
vn 0.057886 0.922330 -0.382042
vn -0.070919 -0.921553 0.381720
vn -0.070919 -0.921553 0.381720
vn 0.057887 0.382041 -0.922330
vn 0.057887 0.382041 -0.922330
vn -0.070920 -0.381720 0.921553
vn -0.070920 -0.381719 0.921553
vn 0.057887 -0.382041 -0.922331
vn 0.057887 -0.382041 -0.922331
vn -0.070920 0.381719 0.921553
vn -0.070920 0.381719 0.921554
vn 0.057887 -0.922330 -0.382041
vn 0.057887 -0.922330 -0.382041
vn -0.070920 0.921553 0.381719
vn -0.070920 0.921553 0.381719
s off
g thruster
usemtl blinn2SG
f 2/2/1 1/1/2 9/10/3 10/11/4
f 3/3/5 2/2/6 10/11/7 11/12/8
f 4/4/9 3/3/10 11/12/11 12/13/12
f 5/5/13 4/4/14 12/13/15 13/14/16
f 6/6/17 5/5/18 13/14/19 14/15/20
f 7/7/21 6/6/22 14/15/23 15/16/24
f 8/8/25 7/7/26 15/16/27 16/17/28
f 1/9/29 8/8/30 16/17/31 9/18/32
s 1
f 10/11/33 9/10/34 17/19/35 18/20/36
f 11/12/37 10/11/33 18/20/36 19/21/38
f 12/13/39 11/12/37 19/21/38 20/22/40
f 13/14/41 12/13/39 20/22/40 21/23/42
f 14/15/43 13/14/41 21/23/42 22/24/44
f 15/16/45 14/15/43 22/24/44 23/25/46
f 16/17/47 15/16/45 23/25/46 24/26/48
f 9/18/34 16/17/47 24/26/48 17/27/35
s 2
f 42/55/49 41/56/50 43/57/51 44/58/52
s 3
f 45/59/53 42/55/54 44/58/55 46/60/56
s 4
f 47/61/57 45/59/58 46/60/59 48/62/60
s 5
f 49/63/61 47/61/62 48/62/63 50/64/64
s 6
f 51/65/65 49/63/66 50/64/67 52/66/68
s 7
f 53/67/69 51/65/70 52/66/71 54/68/72
s 8
f 55/69/73 53/67/74 54/68/75 56/70/76
s 9
f 41/71/77 55/69/78 56/70/79 43/72/80
s 10
f 26/29/81 25/28/82 1/37/83 2/38/84
f 27/30/85 26/29/81 2/38/84 3/39/86
f 28/31/87 27/30/85 3/39/86 4/40/88
f 29/32/89 28/31/87 4/40/88 5/41/90
f 30/33/91 29/32/89 5/41/90 6/42/92
f 31/34/93 30/33/91 6/42/92 7/43/94
f 32/35/95 31/34/93 7/43/94 8/44/96
f 25/36/82 32/35/95 8/44/96 1/45/83
s off
f 34/48/97 33/46/98 32/35/99 25/36/100
f 35/49/101 34/47/102 25/28/103 26/29/104
f 36/50/105 35/49/106 26/29/107 27/30/108
f 37/51/109 36/50/110 27/30/111 28/31/112
f 38/52/113 37/51/114 28/31/115 29/32/116
f 39/53/117 38/52/118 29/32/119 30/33/120
f 40/54/121 39/53/122 30/33/123 31/34/124
f 33/46/125 40/54/126 31/34/127 32/35/128
s 11
f 74/91/129 73/92/130 75/93/131 76/94/132
s 12
f 34/47/133 35/49/134 44/58/135 43/57/136
s 11
f 77/95/137 74/91/129 76/94/132 78/96/138
s 12
f 35/49/134 36/50/139 46/60/140 44/58/135
s 11
f 79/97/141 77/95/137 78/96/138 80/98/142
s 12
f 36/50/139 37/51/143 48/62/144 46/60/140
s 11
f 81/99/145 79/97/141 80/98/142 82/100/146
s 12
f 37/51/143 38/52/147 50/64/148 48/62/144
s 11
f 83/101/149 81/99/145 82/100/146 84/102/150
s 12
f 38/52/147 39/53/151 52/66/152 50/64/148
s 11
f 85/103/153 83/101/149 84/102/150 86/104/154
s 12
f 39/53/151 40/54/155 54/68/156 52/66/152
s 11
f 87/105/157 85/103/153 86/104/154 88/106/158
s 12
f 40/54/155 33/46/159 56/70/160 54/68/156
s 11
f 73/107/130 87/105/157 88/106/158 75/108/131
s 12
f 33/46/159 34/48/133 43/72/136 56/70/160
s 13
f 18/20/161 17/19/162 57/74/163 58/73/164
s 2
f 41/56/50 42/55/49 60/76/165 59/75/166
s 14
f 19/21/167 18/20/168 58/73/169 61/77/170
s 3
f 42/55/54 45/59/53 62/78/171 60/76/172
s 15
f 20/22/173 19/21/174 61/77/175 63/79/176
s 4
f 45/59/58 47/61/57 64/80/177 62/78/178
s 16
f 21/23/179 20/22/180 63/79/181 65/81/182
s 5
f 47/61/62 49/63/61 66/82/183 64/80/184
s 17
f 22/24/185 21/23/186 65/81/187 67/83/188
s 6
f 49/63/66 51/65/65 68/84/189 66/82/190
s 18
f 23/25/191 22/24/192 67/83/193 69/85/194
s 7
f 51/65/70 53/67/69 70/86/195 68/84/196
s 19
f 24/26/197 23/25/198 69/85/199 71/87/200
s 8
f 53/67/74 55/69/73 72/88/201 70/86/202
s 20
f 17/27/203 24/26/204 71/87/205 57/89/206
s 9
f 55/69/78 41/71/77 59/90/207 72/88/208
s 13
f 58/73/164 57/74/163 73/92/209 74/91/210
s 2
f 59/75/166 60/76/165 76/94/211 75/93/212
s 14
f 61/77/170 58/73/169 74/91/213 77/95/214
s 3
f 60/76/172 62/78/171 78/96/215 76/94/216
s 15
f 63/79/176 61/77/175 77/95/217 79/97/218
s 4
f 62/78/178 64/80/177 80/98/219 78/96/220
s 16
f 65/81/182 63/79/181 79/97/221 81/99/222
s 5
f 64/80/184 66/82/183 82/100/223 80/98/224
s 17
f 67/83/188 65/81/187 81/99/225 83/101/226
s 6
f 66/82/190 68/84/189 84/102/227 82/100/228
s 18
f 69/85/194 67/83/193 83/101/229 85/103/230
s 7
f 68/84/196 70/86/195 86/104/231 84/102/232
s 19
f 71/87/200 69/85/199 85/103/233 87/105/234
s 8
f 70/86/202 72/88/201 88/106/235 86/104/236
s 20
f 57/89/206 71/87/205 87/105/237 73/107/238
s 9
f 72/88/208 59/90/207 75/108/239 88/106/240
