# This file uses centimeters as units for non-parametric coordinates.

mtllib wing.mtl
g default
v -3.709138 -0.409140 -0.145160
v 3.709138 -0.409140 -0.145160
v -3.709138 0.409140 -0.145160
v 3.709138 0.409140 -0.145160
v -3.709138 0.409140 -7.563435
v 5.433379 0.409140 -7.563435
v -3.709138 -0.409140 -7.563435
v 5.433379 -0.409140 -7.563435
v -3.518431 -0.409140 8.157652
v -0.964989 -0.409140 8.157652
v -0.964989 0.409140 8.157652
v -3.518431 0.409140 8.157652
vt 0.375000 0.000000
vt 0.625000 0.000000
vt 0.375000 0.250000
vt 0.625000 0.250000
vt 0.375000 0.500000
vt 0.625000 0.500000
vt 0.375000 0.750000
vt 0.625000 0.750000
vt 0.375000 1.000000
vt 0.625000 1.000000
vt 0.875000 0.000000
vt 0.875000 0.250000
vt 0.125000 0.000000
vt 0.125000 0.250000
vt 0.375000 0.000000
vt 0.625000 0.000000
vt 0.625000 0.250000
vt 0.375000 0.250000
vn 0.000000 0.000000 1.000000
vn 0.000000 0.000000 1.000000
vn 0.000000 0.000000 1.000000
vn 0.000000 0.000000 1.000000
vn 0.000000 1.000000 0.000000
vn 0.000000 1.000000 0.000000
vn 0.000000 1.000000 0.000000
vn 0.000000 1.000000 0.000000
vn 0.000000 0.000000 -1.000000
vn 0.000000 0.000000 -1.000000
vn 0.000000 0.000000 -1.000000
vn 0.000000 0.000000 -1.000000
vn 0.000000 -1.000000 0.000000
vn 0.000000 -1.000000 0.000000
vn 0.000000 -1.000000 0.000000
vn 0.000000 -1.000000 0.000000
vn 0.926226 0.000000 0.376967
vn 0.974035 0.000000 0.226397
vn 0.974035 0.000000 0.226397
vn 0.926226 0.000000 0.376967
vn -1.000000 0.000000 0.000000
vn -0.999927 0.000000 0.012130
vn -0.999927 0.000000 0.012130
vn -1.000000 0.000000 0.000000
vn 0.000000 -1.000000 0.000000
vn 0.000000 -1.000000 0.000000
vn 0.871405 0.000000 0.490564
vn 0.871405 0.000000 0.490564
vn 0.000000 1.000000 0.000000
vn 0.000000 1.000000 0.000000
vn -0.999736 0.000000 0.022963
vn -0.999736 0.000000 0.022963
s off
g wing
usemtl blinn3SG
f 9/15/1 10/16/2 11/17/3 12/18/4
s 1
f 3/3/5 4/4/6 6/6/7 5/5/8
s off
f 5/5/9 6/6/10 8/8/11 7/7/12
s 2
f 7/7/13 8/8/14 2/10/15 1/9/16
s 3
f 2/2/17 8/11/18 6/12/19 4/4/20
s 4
f 7/13/21 1/1/22 3/3/23 5/14/24
s 2
f 1/1/16 2/2/15 10/16/25 9/15/26
s 3
f 2/2/17 4/4/20 11/17/27 10/16/28
s 1
f 4/4/6 3/3/5 12/18/29 11/17/30
s 4
f 3/3/23 1/1/22 9/15/31 12/18/32
